<?xml version="1.0"?>
<svg xmlns="http://www.w3.org/2000/svg" xmlns:xlink="http://www.w3.org/1999/xlink" version="1.1" baseProfile="full" width="4000" height="3000">
<polygon xmlns="" fill="yellow" stroke="black" stroke-width="2" points="3570.01897533331,1980.70754716561 3583.14990512704,1801.41509434208 3408.80455407905,1787.26415094139 3423.75711575104,1581.79245283062 3249.1081593918,1567.64150943999 3236.81214421345,1736.60377358424 3152.94117647287,1729.81132075513 3143.90891840527,1853.49056603528 3396.43263757153,1873.86792453267 3389.67741935716,1966.13207546813 3570.01897533331,1980.70754716561 "/>
<polygon xmlns="" fill="yellow" stroke="black" stroke-width="2" points="1343.7571157491,802.075471698231 1473.16888045733,814.95283018843 1453.58633776049,1032.02830188897 1700.79696394486,1056.6509433945 1687.59013282737,1203.11320754735 1444.7058823512,1178.773584903 1422.54269449527,1424.71698113732 1288.72865274967,1411.27358490465 1343.7571157491,802.075471698231 "/>
<polygon xmlns="" fill="yellow" stroke="black" stroke-width="2" points="-1657.68500948876,1318.44339622673 -1633.24478178498,1090.61320755011 260.113851990612,1295.66037736409 235.673624286833,1523.3490566051 -1657.68500948876,1318.44339622673 "/>
<polygon xmlns="" fill="yellow" stroke="black" stroke-width="2" points="3713.32068311609,2268.8207547207 3672.94117647201,2706.93396225869 1640.83491460933,2499.33962264385 1688.72865275398,1979.85849056197 1533.73814041536,1964.00943396406 1474.2314990494,2609.15094339455 3812.0683111995,2847.87735849291 3864.06072106488,2284.1037735862 3713.32068311609,2268.8207547207 "/>
<polygon xmlns="" fill="yellow" stroke="black" stroke-width="2" points="325.161290320556,1742.97169811656 1143.60531309402,1815.28301887153 1112.25806451755,2208.96226414907 691.233396583916,2171.74528301452 293.738140414926,2136.6509433941 325.161290320556,1742.97169811656 "/>
<polygon xmlns="" fill="yellow" stroke="black" stroke-width="2" points="2876.20493358491,724.245283024629 2939.5825426949,631.273584911089 3163.1119544617,799.952830194161 3099.81024668087,892.924528307702 2876.20493358491,724.245283024629 "/>
<polygon xmlns="" fill="yellow" stroke="black" stroke-width="2" points="2372.90322580689,2030.80188679036 2515.67362429093,2047.07547169511 2496.54648956366,2233.16037735781 2353.77609107961,2216.88679245306 2372.90322580689,2030.80188679036 "/>
<polygon xmlns="" fill="yellow" stroke="black" stroke-width="2" points="580.645161291714,1354.66981132202 853.965844399818,1382.1226415097 838.861480074892,1548.96226414988 565.540796961395,1521.5094339622 580.645161291714,1354.66981132202 "/>
<polygon xmlns="" fill="yellow" stroke="black" stroke-width="2" points="101.555977229989,3084.0566037703 218.823529412793,2994.90566037817 310.05692599563,3104.57547169325 427.324478178434,3029.15094339495 525.009487664392,3159.33962264304 407.741935481588,3275.94339622286 186.261859580544,3241.69811320607 101.555977229989,3084.0566037703 "/>
<polygon xmlns="" fill="yellow" stroke="black" stroke-width="2" points="2299.2789373843,1731.36792452679 2343.60531309618,1033.16037736384 1821.78368121337,488.066037737184 90.9297912715892,309.056603774829 99.5825426933936,174.622641518599 161.214421248875,180.990566040863 1865.65464895568,350.518867927574 2463.07400379766,985.047169817603 2422.4667931715,1742.12264151292 2299.2789373843,1731.36792452679 "/>
<polygon xmlns="" fill="yellow" stroke="black" stroke-width="2" points="3358.55787476278,2199.62264150905 3352.78937381671,2305.6132075484 3462.84629981018,2312.40566037751 3468.69070209081,2206.41509433816 3358.55787476278,2199.62264150905 "/>
</svg>
